<?xml version="1.0" encoding="UTF-8"?><svg xmlns="http://www.w3.org/2000/svg" xmlns:xlink="http://www.w3.org/1999/xlink" version="1.1" id="Layer_1" x="0px" y="0px" viewBox="0 0 24 24" xml:space="preserve"><path fill="#303C42" d="M3.5 6h17C21.879 6 23 4.878 23 3.5S21.879 1 20.5 1h-17C2.121 1 1 2.122 1 3.5S2.121 6 3.5 6z"/><path fill="#1E88E5" d="M3.5 2h17c.827 0 1.5.673 1.5 1.5S21.327 5 20.5 5h-17C2.673 5 2 4.327 2 3.5S2.673 2 3.5 2z"/><path fill="#303C42" d="M3.5 14.5h17c1.379 0 2.5-1.122 2.5-2.5s-1.121-2.5-2.5-2.5h-17C2.121 9.5 1 10.622 1 12s1.121 2.5 2.5 2.5z"/><path fill="#1E88E5" d="M3.5 10.5h17c.827 0 1.5.673 1.5 1.5s-.673 1.5-1.5 1.5h-17c-.827 0-1.5-.673-1.5-1.5s.673-1.5 1.5-1.5z"/><path fill="#303C42" d="M3.5 23h17c1.379 0 2.5-1.122 2.5-2.5S21.879 18 20.5 18h-17C2.121 18 1 19.122 1 20.5S2.121 23 3.5 23z"/><path fill="#1E88E5" d="M3.5 19h17c.827 0 1.5.673 1.5 1.5s-.673 1.5-1.5 1.5h-17c-.827 0-1.5-.673-1.5-1.5S2.673 19 3.5 19z"/><linearGradient id="SVGID_1_" gradientUnits="userSpaceOnUse" x1="-0.5032251" y1="6.1696506" x2="24.5032253" y2="17.830349"><stop offset="0" stop-color="#FFF" stop-opacity="0.2"/><stop offset="1" stop-color="#FFF" stop-opacity="0"/></linearGradient><path fill="url(#SVGID_1_)" d="M3.5 6h17C21.879 6 23 4.878 23 3.5S21.879 1 20.5 1h-17C2.121 1 1 2.122 1 3.5S2.121 6 3.5 6zm17 3.5h-17C2.121 9.5 1 10.622 1 12s1.121 2.5 2.5 2.5h17c1.379 0 2.5-1.122 2.5-2.5s-1.121-2.5-2.5-2.5zm0 8.5h-17C2.121 18 1 19.122 1 20.5S2.121 23 3.5 23h17c1.379 0 2.5-1.122 2.5-2.5S21.879 18 20.5 18z"/><metadata><rdf:RDF xmlns:rdf="http://www.w3.org/1999/02/22-rdf-syntax-ns#" xmlns:rdfs="http://www.w3.org/2000/01/rdf-schema#" xmlns:dc="http://purl.org/dc/elements/1.1/"><rdf:Description about="https://iconscout.com/legal#licenses" dc:title="ui,interface,user,hamburger,menu" dc:description="ui,interface,user,hamburger,menu" dc:publisher="Iconscout" dc:date="2017-08-16" dc:format="image/svg+xml" dc:language="en"><dc:creator><rdf:Bag><rdf:li>Those Icons</rdf:li></rdf:Bag></dc:creator></rdf:Description></rdf:RDF></metadata></svg>