<svg xmlns="http://www.w3.org/2000/svg" viewBox="0 0 64 64"><g data-name="Up"><path fill="#37e288" d="M32,44a2,2,0,0,1-2-2V22a2,2,0,0,1,4,0V42A2,2,0,0,1,32,44Z"/><path fill="#37e288" d="M23,33a2,2,0,0,1-1.4141-3.4141l9-9a2,2,0,1,1,2.8282,2.8282l-9,9A1.9938,1.9938,0,0,1,23,33Z"/><path fill="#37e288" d="M41,33a1.9938,1.9938,0,0,1-1.4141-.5859l-9-9a2,2,0,0,1,2.8282-2.8282l9,9A2,2,0,0,1,41,33Z"/><path fill="#546e7a" d="M32,58A25.9776,25.9776,0,1,1,56.5488,40.5835a2,2,0,1,1-3.7754-1.32,22.0234,22.0234,0,1,0-3.4033,6.24,2,2,0,0,1,3.1563,2.457A25.8518,25.8518,0,0,1,32,58Z"/></g></svg>